<?xml version="1.0" standalone="no"?>
<!DOCTYPE svg PUBLIC "-//W3C//DTD SVG 20010904//EN"
 "http://www.w3.org/TR/2001/REC-SVG-20010904/DTD/svg10.dtd">
<svg version="1.0" xmlns="http://www.w3.org/2000/svg"
 width="500.000000pt" height="500.000000pt" viewBox="0 0 500.000000 500.000000"
 preserveAspectRatio="xMidYMid meet">
<metadata>
Created by potrace 1.16, written by Peter Selinger 2001-2019
</metadata>
<g transform="translate(0.000000,500.000000) scale(0.100000,-0.100000)"
fill="#000000" stroke="none">
<path d="M2341 2975 c-129 -42 -229 -126 -285 -241 -35 -70 -47 -172 -24 -192
12 -9 123 -12 479 -10 l464 3 3 49 c8 127 -94 282 -237 359 -116 62 -269 75
-400 32z m248 -55 c133 -22 254 -117 299 -235 12 -31 22 -63 22 -70 0 -10 -42
-15 -175 -20 -96 -4 -189 -5 -205 -2 -16 4 -122 7 -236 7 l-206 2 7 36 c9 48
24 76 25 45 0 -34 11 -53 30 -53 22 0 34 15 49 61 13 40 65 94 129 133 44 28
48 36 32 66 -9 17 -5 20 32 28 59 13 121 14 197 2z"/>
<path d="M2108 2460 c-64 -33 -72 -42 -63 -69 9 -30 31 -32 77 -6 54 31 65 31
121 -1 l46 -25 56 27 56 28 45 -22 c55 -27 66 -27 121 0 l43 22 45 -22 c56
-27 65 -27 117 -2 52 25 57 25 112 -1 51 -25 76 -20 76 16 0 21 -10 30 -63 55
-75 35 -82 36 -125 10 -41 -25 -61 -25 -117 2 l-45 22 -53 -26 -52 -25 -55 24
-54 24 -56 -24 -56 -25 -44 24 c-57 29 -63 29 -132 -6z"/>
<path d="M2050 2321 c-11 -22 -5 -48 13 -53 7 -2 208 -1 447 2 l435 5 3 24 c2
13 -2 28 -10 32 -7 5 -207 9 -445 9 -417 0 -433 -1 -443 -19z"/>
<path d="M2048 2215 c-12 -27 0 -50 33 -60 16 -5 14 -11 -21 -44 -39 -37 -40
-39 -40 -110 0 -67 2 -75 29 -102 l29 -29 422 0 422 0 29 29 c26 27 29 35 29
99 0 55 -4 75 -21 96 -28 35 -56 49 -99 48 -35 -1 -35 -1 -10 13 16 9 30 10
42 4 21 -11 63 3 71 25 3 8 -3 25 -13 38 -18 22 -20 22 -49 6 -25 -14 -32 -14
-48 -2 -23 17 -51 17 -85 0 -23 -12 -29 -12 -39 1 -13 15 -73 11 -95 -8 -7 -6
-16 -4 -24 6 -16 19 -47 19 -81 1 -23 -12 -29 -12 -43 2 -13 13 -23 14 -63 4
-30 -6 -52 -7 -57 -1 -15 14 -70 11 -91 -5 -15 -11 -22 -11 -44 0 -33 18 -52
17 -78 -1 -18 -13 -22 -13 -33 0 -20 24 -59 19 -72 -10z m812 -153 l45 -7 0
-55 0 -55 -40 -7 c-69 -12 -721 -9 -749 3 -17 8 -25 21 -28 44 -6 48 5 69 38
76 39 9 677 9 734 1z"/>
</g>
</svg>
